<svg width="125" height="28" viewBox="0 0 125 28" fill="none" xmlns="http://www.w3.org/2000/svg">
<path d="M39.6138 15.6833C39.6138 15.4759 39.5819 15.2898 39.5181 15.125C39.4596 14.9549 39.3479 14.8007 39.1831 14.6624C39.0183 14.5189 38.787 14.378 38.4893 14.2397C38.1915 14.1015 37.806 13.958 37.3328 13.8091C36.8065 13.6389 36.3067 13.4475 35.8335 13.2349C35.3656 13.0222 34.9509 12.775 34.5894 12.4932C34.2331 12.2061 33.9513 11.8738 33.744 11.4963C33.5419 11.1188 33.4409 10.6801 33.4409 10.1803C33.4409 9.69651 33.5473 9.25787 33.7599 8.86442C33.9726 8.46566 34.2703 8.12538 34.6532 7.84359C35.036 7.55648 35.4879 7.33583 36.009 7.18164C36.5353 7.02745 37.1122 6.95036 37.7396 6.95036C38.5956 6.95036 39.3426 7.10455 39.9806 7.41292C40.6187 7.7213 41.1131 8.14399 41.464 8.68099C41.8203 9.21799 41.9984 9.83209 41.9984 10.5233H39.6217C39.6217 10.183 39.55 9.88525 39.4064 9.63005C39.2682 9.36952 39.0555 9.16482 38.7684 9.01595C38.4866 8.86708 38.1304 8.79264 37.6997 8.79264C37.285 8.79264 36.9394 8.85645 36.6629 8.98405C36.3864 9.10634 36.1791 9.27382 36.0409 9.48649C35.9026 9.69385 35.8335 9.92779 35.8335 10.1883C35.8335 10.385 35.8813 10.5632 35.9771 10.7227C36.0781 10.8822 36.2269 11.031 36.4237 11.1693C36.6204 11.3075 36.8623 11.4378 37.1494 11.5601C37.4365 11.6823 37.7688 11.802 38.1463 11.9189C38.779 12.1104 39.3346 12.3257 39.8132 12.5649C40.297 12.8042 40.7011 13.0727 41.0254 13.3704C41.3497 13.6682 41.5943 14.0058 41.7591 14.3833C41.9239 14.7608 42.0063 15.1888 42.0063 15.6673C42.0063 16.1724 41.908 16.6243 41.7113 17.0231C41.5145 17.4219 41.2301 17.7595 40.8579 18.036C40.4857 18.3124 40.0418 18.5225 39.526 18.666C39.0103 18.8096 38.4334 18.8813 37.7954 18.8813C37.2212 18.8813 36.6549 18.8069 36.0967 18.658C35.5384 18.5039 35.0307 18.2726 34.5734 17.9642C34.1215 17.6558 33.7599 17.2624 33.4888 16.7839C33.2176 16.3053 33.082 15.7391 33.082 15.0851H35.4826C35.4826 15.4467 35.5384 15.7524 35.6501 16.0023C35.7617 16.2522 35.9186 16.4542 36.1206 16.6084C36.328 16.7626 36.5725 16.8742 36.8543 16.9434C37.1414 17.0125 37.4551 17.047 37.7954 17.047C38.2101 17.047 38.5504 16.9886 38.8162 16.8716C39.0874 16.7546 39.2868 16.5924 39.4144 16.3851C39.5473 16.1777 39.6138 15.9438 39.6138 15.6833Z" fill="url(#paint0_linear_1643_13)"/>
<path d="M50.3644 14.8698H52.749C52.7012 15.6514 52.4858 16.3452 52.103 16.9513C51.7255 17.5575 51.1965 18.0307 50.516 18.3709C49.8407 18.7112 49.0272 18.8813 48.0755 18.8813C47.3312 18.8813 46.6639 18.7537 46.0737 18.4985C45.4836 18.238 44.9785 17.8658 44.5584 17.382C44.1437 16.8982 43.8274 16.3133 43.6094 15.6274C43.3914 14.9416 43.2824 14.1733 43.2824 13.3226V12.5171C43.2824 11.6664 43.394 10.8981 43.6174 10.2122C43.846 9.52105 44.1703 8.93354 44.5903 8.44971C45.0157 7.96587 45.5234 7.5937 46.1136 7.33317C46.7038 7.07265 47.3631 6.94238 48.0915 6.94238C49.0591 6.94238 49.8753 7.11784 50.5399 7.46875C51.2098 7.81966 51.7282 8.30349 52.0951 8.92025C52.4672 9.537 52.6905 10.2388 52.765 11.0257H50.3724C50.3458 10.5578 50.2528 10.1617 50.0933 9.8374C49.9338 9.50776 49.6918 9.26053 49.3675 9.0957C49.0485 8.92556 48.6232 8.84049 48.0915 8.84049C47.6927 8.84049 47.3445 8.91493 47.0467 9.0638C46.749 9.21267 46.4991 9.43864 46.297 9.7417C46.095 10.0448 45.9435 10.4276 45.8424 10.8901C45.7467 11.3474 45.6989 11.8844 45.6989 12.5011V13.3226C45.6989 13.9234 45.7441 14.4524 45.8345 14.9097C45.9249 15.3616 46.0631 15.7444 46.2492 16.0581C46.4406 16.3665 46.6852 16.6004 46.9829 16.7599C47.286 16.9141 47.6502 16.9912 48.0755 16.9912C48.5753 16.9912 48.9874 16.9115 49.3117 16.752C49.636 16.5924 49.8832 16.3558 50.0534 16.0422C50.2288 15.7285 50.3325 15.3377 50.3644 14.8698Z" fill="url(#paint1_linear_1643_13)"/>
<path d="M60.3654 15.6833C60.3654 15.4759 60.3335 15.2898 60.2697 15.125C60.2112 14.9549 60.0996 14.8007 59.9347 14.6624C59.7699 14.5189 59.5386 14.378 59.2409 14.2397C58.9431 14.1015 58.5577 13.958 58.0845 13.8091C57.5581 13.6389 57.0583 13.4475 56.5851 13.2349C56.1172 13.0222 55.7025 12.775 55.341 12.4932C54.9848 12.2061 54.703 11.8738 54.4956 11.4963C54.2936 11.1188 54.1925 10.6801 54.1925 10.1803C54.1925 9.69651 54.2989 9.25787 54.5116 8.86442C54.7242 8.46566 55.022 8.12538 55.4048 7.84359C55.7876 7.55648 56.2395 7.33583 56.7606 7.18164C57.2869 7.02745 57.8638 6.95036 58.4912 6.95036C59.3472 6.95036 60.0942 7.10455 60.7323 7.41292C61.3703 7.7213 61.8647 8.14399 62.2157 8.68099C62.5719 9.21799 62.75 9.83209 62.75 10.5233H60.3734C60.3734 10.183 60.3016 9.88525 60.158 9.63005C60.0198 9.36952 59.8071 9.16482 59.52 9.01595C59.2382 8.86708 58.882 8.79264 58.4513 8.79264C58.0366 8.79264 57.691 8.85645 57.4146 8.98405C57.1381 9.10634 56.9307 9.27382 56.7925 9.48649C56.6542 9.69385 56.5851 9.92779 56.5851 10.1883C56.5851 10.385 56.633 10.5632 56.7287 10.7227C56.8297 10.8822 56.9786 11.031 57.1753 11.1693C57.372 11.3075 57.6139 11.4378 57.901 11.5601C58.1882 11.6823 58.5205 11.802 58.898 11.9189C59.5307 12.1104 60.0863 12.3257 60.5648 12.5649C61.0486 12.8042 61.4527 13.0727 61.777 13.3704C62.1013 13.6682 62.3459 14.0058 62.5107 14.3833C62.6756 14.7608 62.758 15.1888 62.758 15.6673C62.758 16.1724 62.6596 16.6243 62.4629 17.0231C62.2662 17.4219 61.9817 17.7595 61.6095 18.036C61.2374 18.3124 60.7934 18.5225 60.2777 18.666C59.7619 18.8096 59.1851 18.8813 58.547 18.8813C57.9728 18.8813 57.4066 18.8069 56.8483 18.658C56.29 18.5039 55.7823 18.2726 55.325 17.9642C54.8731 17.6558 54.5116 17.2624 54.2404 16.7839C53.9692 16.3053 53.8337 15.7391 53.8337 15.0851H56.2342C56.2342 15.4467 56.29 15.7524 56.4017 16.0023C56.5133 16.2522 56.6702 16.4542 56.8722 16.6084C57.0796 16.7626 57.3242 16.8742 57.606 16.9434C57.8931 17.0125 58.2068 17.047 58.547 17.047C58.9618 17.047 59.302 16.9886 59.5679 16.8716C59.839 16.7546 60.0384 16.5924 60.166 16.3851C60.2989 16.1777 60.3654 15.9438 60.3654 15.6833Z" fill="url(#paint2_linear_1643_13)"/>
<path d="M75.1834 14.8698H77.568C77.5202 15.6514 77.3049 16.3452 76.922 16.9513C76.5445 17.5575 76.0155 18.0307 75.335 18.3709C74.6597 18.7112 73.8462 18.8813 72.8945 18.8813C72.1502 18.8813 71.4829 18.7537 70.8927 18.4985C70.3026 18.238 69.7975 17.8658 69.3774 17.382C68.9627 16.8982 68.6464 16.3133 68.4284 15.6274C68.2104 14.9416 68.1014 14.1733 68.1014 13.3226V12.5171C68.1014 11.6664 68.2131 10.8981 68.4364 10.2122C68.665 9.52105 68.9893 8.93354 69.4093 8.44971C69.8347 7.96587 70.3425 7.5937 70.9326 7.33317C71.5228 7.07265 72.1821 6.94238 72.9105 6.94238C73.8781 6.94238 74.6943 7.11784 75.3589 7.46875C76.0288 7.81966 76.5472 8.30349 76.9141 8.92025C77.2862 9.537 77.5096 10.2388 77.584 11.0257H75.1914C75.1648 10.5578 75.0718 10.1617 74.9123 9.8374C74.7528 9.50776 74.5109 9.26053 74.1865 9.0957C73.8675 8.92556 73.4422 8.84049 72.9105 8.84049C72.5117 8.84049 72.1635 8.91493 71.8657 9.0638C71.568 9.21267 71.3181 9.43864 71.1161 9.7417C70.914 10.0448 70.7625 10.4276 70.6615 10.8901C70.5658 11.3474 70.5179 11.8844 70.5179 12.5011V13.3226C70.5179 13.9234 70.5631 14.4524 70.6535 14.9097C70.7439 15.3616 70.8821 15.7444 71.0682 16.0581C71.2596 16.3665 71.5042 16.6004 71.8019 16.7599C72.105 16.9141 72.4692 16.9912 72.8945 16.9912C73.3943 16.9912 73.8064 16.9115 74.1307 16.752C74.455 16.5924 74.7023 16.3558 74.8724 16.0422C75.0479 15.7285 75.1515 15.3377 75.1834 14.8698Z" fill="url(#paint3_linear_1643_13)"/>
<path d="M86.8831 11.8392V13.7054H80.8219V11.8392H86.8831ZM81.5317 7.10986V18.7218H79.1392V7.10986H81.5317ZM88.5898 7.10986V18.7218H86.2052V7.10986H88.5898Z" fill="url(#paint4_linear_1643_13)"/>
<path d="M95.5363 9.0957L92.3781 18.7218H89.834L94.1486 7.10986H95.7676L95.5363 9.0957ZM98.1602 18.7218L94.994 9.0957L94.7388 7.10986H96.3737L100.712 18.7218H98.1602ZM98.0166 14.3993V16.2734H91.8836V14.3993H98.0166Z" fill="url(#paint5_linear_1643_13)"/>
<path d="M104.333 7.10986V18.7218H101.948V7.10986H104.333Z" fill="url(#paint6_linear_1643_13)"/>
<path d="M116.025 7.10986V18.7218H113.632L108.967 10.938V18.7218H106.574V7.10986H108.967L113.64 14.9017V7.10986H116.025Z" fill="url(#paint7_linear_1643_13)"/>
<path d="M12.832 1.75L6.95203 7.63L12.832 13.51L18.712 7.63L12.832 1.75Z" fill="url(#paint8_linear_1643_13)"/>
<path d="M6.46203 8.12L0.582031 14L6.46203 19.88L12.342 14L6.46203 8.12Z" fill="url(#paint9_linear_1643_13)"/>
<path d="M6.95203 20.37L12.832 14.49L18.712 20.37L12.832 26.25L6.95203 20.37Z" fill="url(#paint10_linear_1643_13)"/>
<path d="M19.202 8.12L13.322 14L19.202 19.88L25.082 14L19.202 8.12Z" fill="url(#paint11_linear_1643_13)"/>
<defs>
<linearGradient id="paint0_linear_1643_13" x1="33.082" y1="12.9119" x2="116.025" y2="12.9119" gradientUnits="userSpaceOnUse">
<stop stop-color="#FFA114"/>
<stop offset="1" stop-color="#FFC72B"/>
</linearGradient>
<linearGradient id="paint1_linear_1643_13" x1="33.082" y1="12.9119" x2="116.025" y2="12.9119" gradientUnits="userSpaceOnUse">
<stop stop-color="#FFA114"/>
<stop offset="1" stop-color="#FFC72B"/>
</linearGradient>
<linearGradient id="paint2_linear_1643_13" x1="33.082" y1="12.9119" x2="116.025" y2="12.9119" gradientUnits="userSpaceOnUse">
<stop stop-color="#FFA114"/>
<stop offset="1" stop-color="#FFC72B"/>
</linearGradient>
<linearGradient id="paint3_linear_1643_13" x1="33.082" y1="12.9119" x2="116.025" y2="12.9119" gradientUnits="userSpaceOnUse">
<stop stop-color="#FFA114"/>
<stop offset="1" stop-color="#FFC72B"/>
</linearGradient>
<linearGradient id="paint4_linear_1643_13" x1="33.082" y1="12.9119" x2="116.025" y2="12.9119" gradientUnits="userSpaceOnUse">
<stop stop-color="#FFA114"/>
<stop offset="1" stop-color="#FFC72B"/>
</linearGradient>
<linearGradient id="paint5_linear_1643_13" x1="33.082" y1="12.9119" x2="116.025" y2="12.9119" gradientUnits="userSpaceOnUse">
<stop stop-color="#FFA114"/>
<stop offset="1" stop-color="#FFC72B"/>
</linearGradient>
<linearGradient id="paint6_linear_1643_13" x1="33.082" y1="12.9119" x2="116.025" y2="12.9119" gradientUnits="userSpaceOnUse">
<stop stop-color="#FFA114"/>
<stop offset="1" stop-color="#FFC72B"/>
</linearGradient>
<linearGradient id="paint7_linear_1643_13" x1="33.082" y1="12.9119" x2="116.025" y2="12.9119" gradientUnits="userSpaceOnUse">
<stop stop-color="#FFA114"/>
<stop offset="1" stop-color="#FFC72B"/>
</linearGradient>
<linearGradient id="paint8_linear_1643_13" x1="0.582031" y1="14" x2="25.082" y2="14" gradientUnits="userSpaceOnUse">
<stop stop-color="#FFA114"/>
<stop offset="1" stop-color="#FFC72B"/>
</linearGradient>
<linearGradient id="paint9_linear_1643_13" x1="0.582031" y1="14" x2="25.082" y2="14" gradientUnits="userSpaceOnUse">
<stop stop-color="#FFA114"/>
<stop offset="1" stop-color="#FFC72B"/>
</linearGradient>
<linearGradient id="paint10_linear_1643_13" x1="0.582031" y1="14" x2="25.082" y2="14" gradientUnits="userSpaceOnUse">
<stop stop-color="#FFA114"/>
<stop offset="1" stop-color="#FFC72B"/>
</linearGradient>
<linearGradient id="paint11_linear_1643_13" x1="0.582031" y1="14" x2="25.082" y2="14" gradientUnits="userSpaceOnUse">
<stop stop-color="#FFA114"/>
<stop offset="1" stop-color="#FFC72B"/>
</linearGradient>
</defs>
</svg>
